<svg width="250" height="100" xmlns="http://www.w3.org/2000/svg" xmlns:xlink="http://www.w3.org/1999/xlink"><defs><path id="a" d="M.006.019h25.36v32.539H.006z"/></defs><g fill="none" fill-rule="evenodd"><g transform="translate(0 34.883)"><mask id="b" fill="#fff"><use xlink:href="#a"/></mask><path d="M6.827 18.646v7.616h6.085c3.992 0 5.387-.995 5.387-3.873 0-2.207-1.417-3.743-4.842-3.743h-6.63zm0-12.57v6.62h5.605c2.465 0 3.665-1.276 3.665-3.071 0-1.904-1.33-3.549-4.559-3.549H6.827zM0 32.558V.018h11.516c5.824 0 11.647 2.553 11.647 9.455 0 2.38-1.09 3.873-3.14 5.517 3.206 1.32 5.343 3.873 5.343 7.313 0 7.723-4.929 10.255-12.127 10.255H0z" fill="#1E1F24" fill-rule="nonzero" mask="url(#b)"/></g><path d="M34.646 31.858c2.218 0 4.263 1.691 4.263 4.207 0 2.472-2.045 4.186-4.263 4.186-2.24 0-4.307-1.67-4.307-4.186s2.067-4.207 4.307-4.207zm3.337 35.698h-6.545V48.969h-2.864v-5.14h9.41v23.727z" fill="#1E1F24" fill-rule="nonzero"/><path d="M51.908 49.324V61.1c0 .999.37 1.825 1.826 1.825.935 0 1.63-.196 2.522-.283l.761 4.628c-1.456.434-2.957.89-4.457.89-4.631 0-7.349-1.911-7.349-6.691V49.324h-3.87V44.11h3.87v-5.67l6.697-2.347v8.017h5.24v5.214h-5.24M83.898 43.959l-9.642 23.597h-5.643l-9.641-23.597h7.486s3.4 10.979 3.733 11.992l1.11 3.796h.223l1.11-3.796c.422-1.057 3.71-11.992 3.71-11.992h7.554" fill="#1E1F24"/><path d="M90.108 55.724c0 3.71 2.14 6.633 4.744 6.633 2.802 0 4.743-2.836 4.743-6.589 0-3.927-1.632-6.61-4.721-6.61-3.023 0-4.766 3.076-4.766 6.566zm-6.818.022c0-4.865 2.89-12.392 11.584-12.392 8.936 0 11.518 7.505 11.518 12.37 0 5.586-3.2 12.437-11.518 12.437-8.407 0-11.584-6.96-11.584-12.415z" fill="#1E1F24" fill-rule="nonzero"/></g></svg>
