<svg width="250" height="100" xmlns="http://www.w3.org/2000/svg"><g fill="#1A1919" fill-rule="evenodd"><path d="M35.547 13.861c12.205 0 26.053 1.036 29.076 1.707 1.47.327 5.945 1.322 5.945 6.516 0 .39-.265 39.531-3.553 44.875-5.047 8.2-30.032 18.68-31.094 19.123a1.37 1.37 0 0 1-1.07-.007c-1.021-.441-25.078-10.9-31.016-19.026C.395 62.342.22 28.766.22 22.084c0-5.194 4.475-6.189 5.946-6.516 3.022-.671 17-1.707 29.38-1.707zm0 2.778c-12.572 0-26.19 1.065-28.786 1.642-2.77.615-3.8 1.656-3.8 3.84 0 15.126.838 40.271 3.087 43.348C11.09 72.37 31.809 81.767 35.404 83.36c3.67-1.572 25.067-10.96 29.277-17.802 2.325-3.779 3.147-35.638 3.147-43.439 0-2.183-1.03-3.224-3.8-3.84-2.596-.576-16.088-1.641-28.481-1.641z" fill-rule="nonzero"/><path d="M36.506 32.932c.38-1.294 3.209-3.159 3.63-2.761.002-.479 2.057-2.361 2.801-2.025-.17-.579 2.65-2.343 3.329-1.843.145-.719 4.23-1.26 5.038-.571.467-.53 4.09.348 4.163 1.273.682-.598 4.377 3.308 4.381 5.28.002.76-3.474-2.34-5.664-1.667-3.623 1.113-8.237 4.971-12.242 10.765-1.102 1.595-3.96 2.17-4.568-.418 0 0-1.249-6.738-.868-8.033" fill-rule="nonzero"/><path d="M36.194 68.943c-.567-.958-.388-2.115.093-2.572.671-.64 2.605-.116 2.762-.702.375-1.395-.607-1.883-.438-3.805.058-.672 1.332-5.546 1.656-5.977.272-.363 1.899-.931 2.33-1.098.277-.322.466-.691.487-1.339-2.132-.647-2.703 1.333-3.007 1.256-.305-.076.156-2.166.423-2.395.266-.228 2.76-.782 3.04-1.221.296-.463 1.447-4.91 0-4.986.117.025-.074-.295.038-.269 2.99.7 5.01-13.608 12.373-13.55 7.31.057 6.927 10.644 6.486 11.04-.82.733-2.03.461-2.07 1.141-.382 6.472-6.168 13.4-7.919 12.79-1.047-.363-.152-3.654.343-3.73-.457-.19 0-3.578.533-3.654-.419-.305-.038-3.426.495-3.464-.258-.237-.23-2.374-.778-3.437-.42-.818-2.234-1.258-2.344.734 1.104-.533 1.18 3.046.723 3.655-.457.609-3.388 1.979-4.301 2.74.076 1.523-1.37 7.385-2.436 9.06-1.066 1.675-2.132 2.665-2.74 4.187-.61 1.523-.22 4.12-1.6 5.292-.611.519-3.886.75-4.15.304"/><path d="M61.318 44.962c.342-.584 1.747-.816 2.253-.533.596.331 1.036 4.986.427 5.138.533.271-.142 3.803-.815 3.807.533.228-.57 3.692-1.218 3.578.38.533-1.409 3.35-1.903 3.198-.153 2.893-8.877 4.274-8.68 1.827.095-1.178 1.4.554 7.271-8.603 2.59-4.038 2.153-7.539 2.665-8.412M34.336 32.955c-.609-1.332-3.11-3.12-3.53-2.724-.002-.478-2.058-2.36-2.802-2.025.17-.578-2.65-2.342-3.328-1.842-.145-.719-4.23-1.26-5.04-.571-.466-.53-4.089.348-4.161 1.273-.683-.598-4.378 3.308-4.382 5.28-.002.76 3.474-2.339 5.664-1.667 3.624 1.113 8.238 4.97 12.242 10.765 1.102 1.594 3.898 2.17 4.508-.418 0 0 1.439-6.738.83-8.071" fill-rule="nonzero"/><path d="M34.633 69.004c.568-1.034.464-2.153-.017-2.61-.671-.64-2.566-.078-2.723-.664-.376-1.395.606-1.883.438-3.805-.059-.672-1.332-5.546-1.656-5.977-.273-.363-1.9-.931-2.33-1.098-.278-.322-.467-.691-.488-1.339 2.132-.647 2.703 1.333 3.008 1.256.304-.076-.157-2.166-.423-2.395-.267-.228-2.723-.82-3.041-1.221-.342-.43-1.447-4.91 0-4.987-.117.026.074-.294-.038-.268-2.99.7-5.01-13.608-12.372-13.55-7.31.057-6.928 10.644-6.487 11.04.82.733 2.031.461 2.071 1.141.38 6.472 6.167 13.4 7.918 12.79 1.047-.363.152-3.654-.342-3.73.456-.19 0-3.578-.534-3.654.42-.305.039-3.426-.494-3.464.258-.237.23-2.374.777-3.437.421-.818 2.234-1.258 2.344.734-1.104-.533-1.18 3.046-.723 3.654.457.61 3.388 1.98 4.302 2.741-.077 1.523 1.37 7.385 2.436 9.06 1.066 1.675 2.132 2.665 2.74 4.187.615 1.537.9 4.575 1.638 5.254.69.634 3.748.796 3.996.342m.837 2.94c-2.283.037-4.287-1.591-3.882-2.026.783-.841 2.15.388 3.787-.335 1.6.685 2.931-.503 3.978.274.594.44-1.598 2.048-3.883 2.086" fill-rule="nonzero"/><path d="M9.624 45.022c-.343-.583-1.747-.662-2.254-.38-.596.33-1.035 4.834-.427 4.986-.532.271.143 3.803.815 3.807-.533.228.571 3.692 1.219 3.578-.381.533 1.408 3.35 1.903 3.198.152 2.893 8.876 4.274 8.679 1.827-.095-1.178-1.4.553-7.27-8.603-2.59-4.038-2.153-7.539-2.665-8.413"/></g></svg>
