<svg width="250" height="100" xmlns="http://www.w3.org/2000/svg"><path d="M20.863 60.042H8.62v-6.299h12.243c3.467 0 4.797.392 4.797 3.002s-1.33 3.297-4.797 3.297zm8.58-10.39c3.004-1.89 4.337-4.449 4.378-8.129.051-4.511-3.285-6.932-5.402-7.612-1.987-.638-2.286-.919-8.09-.919H.118v6.816l8.503-.031v-.042h12.243c3.467 0 4.797.393 4.797 3.002 0 2.61-1.33 3.297-4.797 3.297H8.62v-6.058L.117 46.63v20.435h20.468c5.294 0 6.65-.613 8.03-1.328 1.382-.715 4.898-2.41 5.142-8.378 0-3.882-1.596-6.22-4.314-7.707zm80.517-13.646c-3.259-2.197-6.875-3.014-13.086-3.014H79.717v6.971l8.503-.032v-.043h8.553c6.924 0 10.794 3.679 10.794 10.115 0 6.487-3.87 10.165-10.794 10.165H88.22v-20.03l-8.503 6.653v20.274h16.954c5.702 0 9.775-1.022 13.135-3.371 4.482-3.065 7.077-8.225 7.077-13.946 0-5.67-2.595-10.78-6.923-13.742zM47.652 39.93v-6.939H39.15v6.971l8.502-.032zm17.464-6.939v13.026H47.652v-5.826l-8.502 6.653v20.22h8.502v-14.15h17.464v14.15h8.502V32.992h-8.502z" fill="#1A1919" fill-rule="nonzero"/></svg>
