<svg width="250" height="100" xmlns="http://www.w3.org/2000/svg"><path d="M20.765 32.131c2.907-.071 5.816-.047 8.859-.044.293 0 .532.224.532.5V67.32c0 .12-.104.218-.232.218h-6.52c-.127 0-.23-.098-.23-.218V43.275l-.42-.042c-.252 1.094-.539 2.182-.747 3.283-1.277 6.734-2.524 13.473-3.838 20.2-.069.35-.648.848-1.017.87a42.922 42.922 0 0 1-4.899.002c-.375-.02-.967-.488-1.04-.829-1.528-7.134-2.993-14.28-4.477-21.423-.139-.662-.32-1.316-.807-1.927v23.903c0 .12-.104.218-.231.218H.328a.225.225 0 0 1-.23-.2c-.03-.34-.07-.69-.07-1.04C.023 55.388.039 44.486 0 33.582c-.005-1.277.32-1.488 2.175-1.474 2.177.015 4.382.015 6.587.005 1.516-.006 1.977.127 2.202 1.16 1.377 6.315 2.789 12.623 4.197 18.933.085.38.236.746.64 1.149.259-1.19.546-2.376.774-3.572 1.061-5.567 2.091-11.14 3.193-16.7.074-.376.644-.942.996-.95zm29.555 1.04c1.897 9.857 3.836 19.706 5.754 29.558.302 1.553.567 3.113.859 4.739a.223.223 0 0 1-.049.18.22.22 0 0 1-.168.08h-8.34a.22.22 0 0 1-.216-.181c-.322-1.773-.68-3.528-.933-5.297-.119-.824-.436-1.1-1.333-1.038-1.37.095-2.746.14-4.115.02-1.023-.09-1.499.013-1.646.973-.27 1.772-.666 3.526-1.026 5.333a.22.22 0 0 1-.216.178h-6.136a.218.218 0 0 1-.17-.082.222.222 0 0 1-.045-.184c.444-2.1.866-4.158 1.321-6.21 2.033-9.15 4.11-18.293 6.08-27.457.31-1.447.846-1.957 2.342-1.862 2.173.14 4.363.078 6.544.017.95-.026 1.316.319 1.493 1.233zM45.207 55.29c.94.037 1.138-.373.976-1.223-.468-2.468-.878-4.946-1.331-7.416-.276-1.502-.587-2.996-.882-4.494l-.386.074c-.79 4.052-1.597 8.102-2.331 12.165-.044.24.47.812.763.841 1.055.105 2.127.011 3.191.053zm30.9-6.43c5.092 3.395 6.482 11.963 2.658 16.75-2.532 3.17-6.122 3.72-9.9 3.56-1.16-.049-2.334-.267-3.452-.58-3.672-1.027-6.052-4.264-6.296-8.517-.072-1.272-.018-2.55-.012-3.889a.232.232 0 0 1 .202-.227c.973-.131 1.873-.286 2.779-.346.853-.058 1.713-.02 2.579-.014.117 0 .217.087.23.204.175 1.573.304 3.154.552 4.718.235 1.479 1.293 2.234 2.716 2.431 1.463.202 2.694-.32 3.552-1.525 1.229-1.728 1.172-4.483-.167-6.146-.488-.604-1.122-1.12-1.762-1.574-2.21-1.57-4.451-3.097-6.682-4.64-5.28-3.652-4.694-13.521.38-16.804 3.539-2.289 10.652-2.157 13.851.564 1.448 1.23 2.34 2.801 2.589 4.654.218 1.611.276 3.244.402 4.97a.233.233 0 0 1-.214.245l-5.498.466a.235.235 0 0 1-.253-.21c-.126-1.327-.178-2.544-.395-3.732-.319-1.741-1.356-2.66-2.886-2.765-1.521-.103-2.741.821-3.292 2.495-.774 2.354-.005 4.388 2.236 5.88 2.025 1.347 4.06 2.682 6.084 4.032zm26.04 2.428c.391 0 .707.327.707.728v6.697a.23.23 0 0 1-.227.233c-.94-.006-4.35-.014-4.566-.025-.946-.05-1.352.204-1.457.983l-.003 4.314v.016l-.001 2.43v2.205a.232.232 0 0 1-.228.235h-7.16a.228.228 0 0 1-.226-.21c-.048-.523-.12-1.079-.12-1.636v-.228a878.371 878.371 0 0 0-.006-2.811l.001-.112-.007-4.023c-.125-.936-.608-1.26-1.763-1.167-.108.009-3.179.015-4.054.022a.228.228 0 0 1-.228-.234v-6.69c0-.401.316-.727.708-.727 1.528-.004 4.762-.007 5.353-.009.005-.962-.016-2.412.02-3.608.034-1.192-.029-1.543-1.42-1.433-.124.01-1.525.019-2.088.026a.228.228 0 0 1-.229-.234v-6.68c0-.401.315-.727.707-.729 1.007-.004 2.496-.008 3-.011-.005-3.024-.01-5.067-.007-7.451a.475.475 0 0 1 .468-.48h6.815c.258 0 .467.215.468.48.002 2.374 0 4.45-.003 7.451.515.004 2.026.008 3.046.014.39.001.706.327.706.728v6.69a.232.232 0 0 1-.23.233c-.605-.007-2.16-.017-2.44-.032-1.133-.06-1.108.411-1.108 1.12 0 1.321.012 2.87.016 3.917.606.002 3.986.005 5.556.008z" fill="#272727" fill-rule="nonzero"/></svg>
