<svg width="250" height="100" xmlns="http://www.w3.org/2000/svg"><g fill="#000" fill-rule="evenodd"><path d="M67.598 40.084c1.042.63 2.25.832 3.612.59 1.366-.24 2.44-.83 3.217-1.78.777-.949 1.05-2.103.82-3.463-.232-1.364-.869-2.365-1.916-3.015-1.047-.648-2.252-.849-3.616-.614-1.363.24-2.438.843-3.209 1.803-.776.967-1.052 2.131-.822 3.491.232 1.358.87 2.357 1.914 2.988zM37.863 58.785a.95.95 0 0 1-.508.88c-.354.2-.756.303-1.163.295-.529 0-.948-.155-1.25-.46-.305-.305-.453-.736-.453-1.302 0-.457.087-.84.272-1.128.18-.297.42-.533.724-.713.333-.197.695-.34 1.073-.423.43-.102.865-.176 1.305-.22v3.071zm10.006 1.947v-9.907c0-3.384.271-6.424-1.425-7.984-1.697-1.557-4.513-2.423-8.444-2.335-9.111.201-10.863 4.53-11.117 5.3-.328.98-.395 1.567-.381 2.078.01.297.053.839.257 1.143.262.382.823.503 2.46-.195 0 0 8.644-3.754 8.644.823v.71c-1.11 0-2.015.086-3.575.255a16.18 16.18 0 0 0-4.536 1.174 10.03 10.03 0 0 0-3.734 2.663c-1.023 1.17-1.54 2.734-1.54 4.698 0 1.392.222 2.57.664 3.536.431.963 1.02 1.745 1.759 2.336a7.1 7.1 0 0 0 2.546 1.293c.975.273 1.984.41 2.997.407 2.09 0 4.847-.904 4.847-.904 1.979-.692 3.704.377 3.704.377 1.653.689 3.359.53 4.287.53h.159c.536-.024 2.853-.076 2.689-1.646-.135-1.24-.261-4.352-.261-4.352zm15.869-18.674l-2.078.015s-2.71.198-2.707-2.009c.006-3.566-.846-4.485-.846-4.485-.407-.59-1.026-1.064-1.852-1.424-.83-.358-1.99-.49-3.484-.49l-1.591-.003c-2.485-.003-2.21 2.681-2.21 2.681l.016 2.695-.007 18.53c0 .711.035 1.449.1 2.212.067.763.235 1.53.503 2.31.534 1.524 1.476 2.753 2.833 3.684 1.35.932 3.231 1.395 5.64 1.395 1.61 0 3.206-.38 4.305-1.094 2.821-1.848 3.349-4.738 3.361-5.359.053-2.682-2.58-1.65-2.58-1.65-.664.228-1.26.434-1.865.434-.707 0-1.26-.188-1.665-.56-.4-.371-.603-1.031-.603-1.98l-.055-1.83v-2.313c0-2.591 3.72-3.742 3.72-3.742s1.514-.59 1.9-.866c.44-.311.762-.467 1.01-1.104.28-.728.435-2.42.435-3.108.144-1.974-1.702-1.935-2.28-1.938v-.001zm12.514 3.282a4.253 4.253 0 0 0-.715-1.992c-.398-.575-1.003-1.04-1.814-1.394-.807-.35-1.943-.478-3.406-.478H68.91l-.198.032c-2.332 0-2.119 2.587-2.119 2.587l.02 2.637-.028 13.37c0 .839.04 1.628.12 2.381.075.753.32 1.415.714 1.994.397.578 1.003 1.04 1.813 1.393.814.353 1.945.48 3.408.48h1.406c2.236 0 2.321-2.62 2.321-2.62l-.02-2.634.023-13.375c0-.832-.04-1.628-.118-2.381zm23.45-3.63s-2.072-.234-3.115-.234c-1.746 0-3.034.49-3.857 1.474-.823.981-1.35 2.167-1.585 3.556l-1.006 4.188a36.814 36.814 0 0 1-1.057 3.945s-.548-1.583-1.062-3.945l-1.002-4.188c-.234-1.389-.762-2.575-1.588-3.556-.823-.984-2.108-1.474-3.857-1.474-1.043 0-3.11.234-3.11.234s-2.67.564-1.966 2.945c.133.444.268.915.424 1.438l6.562 17.546c.31.74.75 1.338 1.331 1.798.57.464 1.323.747 2.253.854h4.026c.933-.107 1.683-.39 2.258-.854a4.42 4.42 0 0 0 1.326-1.798l6.564-17.546c.155-.521.29-.994.422-1.438.706-2.38-1.96-2.945-1.96-2.945zm-75.627 9.764c0-.338-.008-.747-.023-1.22a128.25 128.25 0 0 0-.055-1.448c-.01-.487-.046-.981-.096-1.472a8.514 8.514 0 0 0-.226-1.296c-.372-1.66-1.158-3.003-2.37-4.015-1.209-1.015-2.51-1.525-4.595-1.525-1.847 0-3.233.331-4.324.993-.502.294-.971.64-1.401 1.029-.363.338-1.241.446-1.639.06-.316-.306-.814-.822-1.723-1.325C6.328 40.534 0 39.575 0 43.354l.012 15.689s.037 2.454.122 3.247c.084.8.336 1.5.758 2.108.417.613 1.052 1.102 1.911 1.475.859.372 2.058.51 3.606.51.538 0 1.157-.066 1.615-.066 2.464 0 2.243-2.736 2.243-2.736V51.858s-.05-1.742 1.84-1.742c2.042 0 1.84.777 1.84 6.293v3.094c0 .88.044 1.717.125 2.515.085.796.337 1.497.757 2.109.418.606 1.058 1.097 1.913 1.474.862.372 2.058.504 3.606.504h1.487c2.468 0 2.24-2.736 2.24-2.736V51.474zm85.55 2.206c-.111-.375-.143-.741-.19-1.098a2.767 2.767 0 0 1 .038-1c.067-.305.204-.588.416-.849.213-.257.533-.483.96-.67.524-.23.976-.289 1.361-.179.381.108.662.366.842.778.145.335.184.673.116 1.016-.072.337-.287.587-.65.747l-2.893 1.255zm1.195 3.265c1.456-.549 12.317-4.878 12.317-4.878 2.991-1.501-1.509-7.562-1.509-7.562-4.93-5.99-12.896-3.487-12.896-3.487-5.514 1.474-7.264 5.561-7.264 5.561-.825 1.506-1.395 3.323-1.54 5.455-.19 2.87.183 5.225.952 7.06.766 1.834 1.747 3.203 3.018 4.273 1.279 1.075 2.863 2.09 4.418 2.535 1.548.447 5.823 1.499 9.97-.54 1.118-.55 2.781-1.703 3.856-3.185.622-.861 1.869-2.75 1.158-4.1-.707-1.351-3.594.51-5.254 1.164-1.913.753-5.834 1.655-8.049-.877 0 0-.63-.864.823-1.419z"/><path d="M112.8 59.802c-.055 0-.106 0-.158-.01a.85.85 0 0 1-.387-.172.718.718 0 0 1-.244-.309.303.303 0 0 1 .106-.366.354.354 0 0 1 .357-.04c.066.034.124.081.172.138a.393.393 0 0 0 .229.119.546.546 0 0 0 .183-.034.413.413 0 0 0 .212-.157c.043-.07.04-.113.026-.15-.035-.095-.137-.103-.183-.103-.1.002-.192.015-.316.03-.152.02-.31.026-.463.019a.75.75 0 0 1-.395-.128.686.686 0 0 1-.262-.35.735.735 0 0 1 .22-.827c.237-.21.537-.334.853-.354a.854.854 0 0 1 .595.19c.076.07.121.144.149.22.029.083.04.205-.102.308a.366.366 0 0 1-.357.043c-.047-.024-.155-.127-.267-.151a.503.503 0 0 0-.344.066c-.095.067-.122.176-.07.243.064.083.31.022.41.013.137-.016.26-.028.378-.03.096-.005.256.014.341.033.23.066.41.241.483.468a.85.85 0 0 1 .04.472.869.869 0 0 1-.244.429c-.136.129-.298.228-.475.29-.155.063-.32.097-.487.1zm8.967-3.483c-.057 0-.11 0-.159-.008a.864.864 0 0 1-.388-.175.701.701 0 0 1-.244-.308.302.302 0 0 1 .106-.366.35.35 0 0 1 .356-.04c.066.034.126.08.175.136a.387.387 0 0 0 .225.119.518.518 0 0 0 .186-.034.415.415 0 0 0 .21-.157c.043-.068.04-.111.028-.148-.035-.096-.14-.103-.184-.103-.098 0-.194.015-.317.03a2.92 2.92 0 0 1-.462.019.75.75 0 0 1-.397-.13.678.678 0 0 1-.259-.35.742.742 0 0 1-.027-.438.78.78 0 0 1 .245-.389 1.43 1.43 0 0 1 .852-.354.822.822 0 0 1 .34.05.74.74 0 0 1 .256.141.558.558 0 0 1 .15.221.25.25 0 0 1-.1.306.369.369 0 0 1-.357.045c-.05-.025-.159-.128-.269-.153a.512.512 0 0 0-.344.066c-.096.067-.122.178-.07.244.064.082.308.023.41.012.137-.015.262-.026.378-.03.096-.004.256.015.341.034.229.064.412.24.483.467a.854.854 0 0 1 .04.474.863.863 0 0 1-.244.427c-.136.13-.298.229-.475.291a1.357 1.357 0 0 1-.485.1zm-7.307 2.855a.447.447 0 0 1-.195-.255l-.64-1.718a.45.45 0 0 1-.015-.317.337.337 0 0 1 .218-.213.389.389 0 0 1 .286.015c.092.043.16.13.206.251l.182.496.689-.26-.18-.495a.451.451 0 0 1-.016-.32.35.35 0 0 1 .214-.207.405.405 0 0 1 .293.012c.08.04.152.122.2.249l.643 1.722c.045.125.05.235.01.328a.346.346 0 0 1-.213.203.369.369 0 0 1-.29-.013.457.457 0 0 1-.203-.254l-.227-.605-.687.26.225.604c.046.123.05.232.011.326a.384.384 0 0 1-.236.214.358.358 0 0 1-.275-.023zm2.865-3.145a.58.58 0 0 0-.188.037.479.479 0 0 0-.28.274.729.729 0 0 0-.03.24c.008.105.032.209.07.307a.895.895 0 0 0 .153.28.541.541 0 0 0 .375.226c.077 0 .14-.013.202-.038a.498.498 0 0 0 .218-.155.505.505 0 0 0 .096-.27 1.01 1.01 0 0 0-.068-.412 1.021 1.021 0 0 0-.2-.335.47.47 0 0 0-.248-.143l-.1-.011zm.024 2.038h-.003l-.03-.003a1.098 1.098 0 0 1-.86-.44 1.826 1.826 0 0 1-.37-1.002 1.198 1.198 0 0 1 .088-.492c.06-.153.158-.292.282-.401.132-.12.287-.213.456-.272.221-.085.46-.116.696-.091.227.038.422.137.587.29.157.153.285.36.378.605.069.175.105.352.111.524.008.168-.019.336-.079.494-.06.158-.159.298-.286.408a1.348 1.348 0 0 1-.464.28c-.16.065-.332.099-.506.1zm1.907-.881a.44.44 0 0 1-.213-.256l-.61-1.642a.576.576 0 0 1-.04-.218.317.317 0 0 1 .098-.213.463.463 0 0 1 .189-.12l1.155-.435c.162-.063.353-.067.449.172.088.224-.06.354-.222.427l-.86.322.103.279.785-.296c.146-.061.343-.061.424.148.093.233-.03.372-.201.442l-.786.302.132.358.896-.337c.244-.087.375.004.437.16.069.172.03.358-.207.45l-1.192.45c-.16.056-.24.056-.335.008l-.002-.001zM121 65.204h-.42a.139.139 0 0 1-.138-.142.14.14 0 0 1 .139-.141h1.143c.076 0 .139.065.139.141a.14.14 0 0 1-.137.142h-.42v1.314a.152.152 0 0 1-.154.15.15.15 0 0 1-.152-.15v-1.314zm1.4-.13a.15.15 0 0 1 .153-.152h.03c.068 0 .112.034.141.081l.523.823.521-.826a.155.155 0 0 1 .139-.08h.03a.152.152 0 0 1 .154.155v1.452a.152.152 0 0 1-.152.153.152.152 0 0 1-.15-.153v-1.04l-.42.636c-.032.05-.072.08-.13.08-.052 0-.091-.03-.123-.08l-.418-.632v1.038a.148.148 0 0 1-.15.15.145.145 0 0 1-.147-.15v-1.454z"/></g></svg>
