<svg width="250" height="100" xmlns="http://www.w3.org/2000/svg"><g fill="#000" fill-rule="nonzero"><path d="M39.04 57.503a5.213 5.213 0 0 0 1.797 1.127 2.826 2.826 0 0 1-1.314.777c-.49.135-1 .118-1.484-.022a4.965 4.965 0 0 0 1-1.882zm-12.21-4.075l2.479-1.2s-.002.124-.005.189l-.255 1.454-2.052.157a.506.506 0 0 0-.475.543c.02.285.264.5.548.484l1.794-.137-.001.027c-.038.216-.76 4.47-5.554 5.775-3.036.82-5.22-.155-6.072-.665-.093-.06-1.163-.597-1.952-1.373l1.825-.909a.537.537 0 0 0 .232-.698.524.524 0 0 0-.695-.228l-2.176 1.086a7.985 7.985 0 0 1-1.055-1.348l3.094-.338c.026-.007.05-.01.078-.015a.517.517 0 0 0-.19-1.013l-3.508.393a11.024 11.024 0 0 1-.574-1.59c-.765-2.821.92-7.321 1.641-7.935.78-.101 2.527 1.473 3.658 3.002l.49.647.016-.023.008.007.672-.422a3.99 3.99 0 0 1 2.239-.61l.813.026.094-.817c.215-1.893.941-4.127 1.645-4.43.939.169 4.663 3.189 5.424 6.003.143.521.238 1.071.282 1.625l-2.916 1.404a.522.522 0 0 0-.24.696c.11.223.363.332.6.27a.4.4 0 0 0 .088-.037zm23.879-14.78c-.86.238-1.463-.341-2.344-1.222-.848-.836-1.91-1.883-3.43-1.47-2.262.619-3.026 5.298-3.074 5.636-.206 1.164-.369 2.863.038 4.367a10.52 10.52 0 0 0 1.541 3.278l1.16 1.369s1.086 1.03 1.518 2.611c.308 1.818-.794 3.627-2.622 4.116-1.924.534-3.932-.632-4.458-2.564l-.339-1.236a3.154 3.154 0 0 0 1.547-3.602s-1.429-.288-3.233.209c-1.778.475-2.875 1.446-2.875 1.446a3.163 3.163 0 0 0 3.156 2.334l.334 1.237c.527 1.933-.624 3.93-2.546 4.463a3.652 3.652 0 0 1-4.35-2.208 6.38 6.38 0 0 1-.03-2.936l.32-1.776.01-.084c.104-1.21-.008-2.43-.33-3.602-.616-2.271-2.59-4.305-3.406-5.069-.812-.78-2.865-2.533-4.125-2.19-.066.02-.193.05-.193.05-1.415.391-1.833 1.708-2.128 2.84-.157.445-.28.906-.377 1.323-.223.614-.507 1.01-1.074 1.165-.934.258-2.563-1.245-3.142-3.353-.223-.821-.365-2.052.232-3.19.569-1.103 1.686-1.883 3.34-2.328 4.974-1.359 7.961 1.415 8.084 1.534l.619.602.616-.589c.012-.013 1.535-1.464 4.447-2.256 2.92-.796 4.967-.316 4.984-.312l.837.207.231-.834c.008-.038 1.178-4.038 6.188-5.403 1.645-.455 3.004-.39 4.058.27 1.081.685 1.577 1.82 1.798 2.635.58 2.116-.049 4.281-.982 4.533zm2.799-4.511l-.031-.171c-.659-3.406-2.697-6.476-5.623-8.625a15.84 15.84 0 0 0-12.388-2.762l-.197.038c-4.06.852-7.676 3.99-10.058 8.677-3.966-3.32-8.445-4.764-12.451-3.98l-.136.027C4.04 29.126-1.293 37.545.49 46.528c.224 1.031.486 1.911.791 2.67 5.5 15.91 30.193 27.321 31.242 27.797l1.4.637a.966.966 0 0 0 1.107-.23l1.022-1.148c.038-.04 3.845-4.19 7.96-10.293a.964.964 0 0 0-.258-1.33.968.968 0 0 0-1.327.254c-4.032 5.996-7.742 10.026-7.789 10.077l-.564.634-.759-.349c-1.019-.46-24.994-11.53-30.242-26.716a15.454 15.454 0 0 1-.714-2.4C.79 38.218 5.471 30.783 13.002 29.217l.125-.023c3.73-.736 8.008.855 11.747 4.354.228.21.542.3.845.239a.965.965 0 0 0 .683-.548c2.107-4.77 5.48-7.957 9.245-8.747l.182-.035a13.93 13.93 0 0 1 10.895 2.425c.96.707 1.825 1.534 2.576 2.46-1.162-.289-2.492-.229-3.924.163-4.633 1.262-6.517 4.419-7.157 5.892-.982-.11-2.8-.173-5.082.455-2.277.618-3.825 1.58-4.61 2.172-1.298-.948-4.524-2.73-9.159-1.468-2.111.574-3.657 1.689-4.45 3.223-.65 1.283-.784 2.87-.353 4.458.011.03.02.064.029.093-.397-.05-.8-.02-1.184.092-1.265.338-2.127 2.89-2.446 3.973-.318 1.074-.981 3.833-.366 6.097 1.1 4.047 3.938 6 5.378 6.866 1.441.863 2.451 1.149 3.715 1.31 1.5.194 2.519.132 4.066-.281 2.802-.763 4.468-2.36 5.447-3.854.481 1.292 1.477 2.462 3.424 2.94.787.195 2.733.104 4.332-1.033a4.103 4.103 0 0 0 2.945.332h.013v-.005c1.326-.362 2.057-1.272 2.379-1.782 1.957.176 3.684-.727 4.27-1.288 2.345-2.28 1.593-4.853.579-6.59a8.389 8.389 0 0 0-1.027-1.46c-.134-.151-.27-.301-.406-.45l-.862-1.012a8.544 8.544 0 0 1-1.26-2.688c-.259-.943-.255-2.186-.002-3.61l.004-.03c.306-2.082 1.251-4.047 1.805-4.197.482-.134.914.23 1.725 1.027.912.896 2.165 2.139 4.035 1.63 2.122-.581 2.885-3.562 2.35-6.181zm67.706 5.152v-.053c0-2.03-1.46-3.804-3.618-3.804-2.236 0-3.57 1.72-3.57 3.754v.05c0 2.034 1.462 3.81 3.621 3.81 2.235 0 3.567-1.726 3.567-3.757zm-11.04 0v-.053c0-3.955 3.182-7.17 7.473-7.17 4.26 0 7.42 3.161 7.42 7.12v.05c0 3.96-3.188 7.174-7.47 7.174-4.265 0-7.422-3.164-7.422-7.121zm-13.637 0v-.053c0-3.934 3.005-7.17 7.214-7.17 1.326 0 2.403.231 3.307.648 1.67.775 2.703 2.425 1.27 3.71-.627.567-1.231.611-1.231.611-.519-.76-1.168-1.733-3.373-1.733-1.951 0-3.337 1.85-3.337 3.884v.05c0 2.11 1.36 3.81 3.493 3.81 1.306 0 2.892-.565 3.907-1.727l1.922 2.445c-1.332 1.466-3.264 2.646-6.011 2.646-4.13 0-7.16-3.19-7.16-7.121zm-8.198 1.746v-5.369h-1.643v-3.343h1.643v-3.145h3.902v3.145h2.929v3.343H92.24v5.24c0 .898.638 1.908 1.74 1.908.72 0 .908.02 1.44-.065v3.323c-.683.178-1.005.155-1.721.155-2.615 0-5.36-1.425-5.36-5.192zm-6.327-3.744c-.15-1.184-.92-2.243-2.343-2.243-1.265 0-2.586.992-2.777 2.243h5.12zM72.87 39.29v-.053c0-3.934 2.802-7.17 6.802-7.17 4.596 0 6.013 3.624 6.013 5.854 0 2.01-2.508 2.143-3.307 2.143h-5.629c.383 1.77 1.617 3.072 3.362 3.072 1.307 0 2.902-.69 3.974-1.688l1.663 2.681c-1.467 1.472-3.39 2.282-5.689 2.282-4.13 0-7.19-2.9-7.19-7.121zm-5.248.08v-.053c0-2.284-1.207-3.928-3.068-3.928-1.858 0-3.045 1.644-3.045 3.928v.053c0 2.284 1.383 3.802 3.045 3.802 1.663 0 3.068-1.49 3.068-3.802zm3.791-.183c0 3.505-1.879 7.205-6.157 7.205-2.08 0-2.756-.589-3.664-1.395v3.382c0 2.784-3.743 2.452-3.743 2.452V32.323H61.3v1.538c.949-1.28 2.447-1.795 4.472-1.795 3.564 0 5.64 3.613 5.64 7.12zm60.638 25.553c0 1.667-1.286 3.595-3.08 3.595-1.392 0-2.058-.855-2.058-1.767 0-1.904 2.81-2.144 4.55-2.144h.588v.316zm-2.328-8.066c-3.24 0-5.356 1.689-5.356 1.689l1.285 2.44s.492-.362 1.245-.709c.68-.306 1.573-.606 2.505-.606 1.499 0 2.62.614 2.62 2.411v.19h-.453c-2.222 0-8.087.298-8.087 4.638 0 2.734 2.197 4.266 4.633 4.266 3.106 0 4.179-2.418 4.151-2.418h.055l.002.971s-.03.464.253.783c.303.35.875.34.875.34h1.949v-8.554c0-3.454-2.091-5.441-5.677-5.441zm-49.277 3.949v5.082c0 3.465 1.597 5.223 4.75 5.223 1.97 0 3.485-.994 4.311-2.15v.145c0 1.077.71 1.694 1.95 1.694l1.643-.001V57h-3.722v6.293c0 2.017-1.077 4.186-3.44 4.186-1.276 0-1.798-.707-1.798-2.444V58.6c0-1.322-.637-1.958-1.95-1.958h-1.747l.003 3.98zm27.05 6.329v-5.092c0-3.46-1.597-5.217-4.748-5.217-1.973 0-3.489.995-4.314 2.148v-.139c0-1.082-.71-1.697-1.95-1.697H94.84v13.669h3.72v-6.346c0-2.017 1.077-4.195 3.44-4.195 1.278 0 1.8.712 1.8 2.451v6.44c0 1.313.636 1.955 1.95 1.955h1.748l-.005-3.977zm73.354.055v-5.093c0-3.46-1.6-5.214-4.748-5.214-1.975 0-3.487.996-4.314 2.146v-.143c0-1.076-.71-1.693-1.952-1.693l-1.64.001v13.667h3.723v-6.343c0-2.018 1.075-4.197 3.437-4.197 1.279 0 1.8.71 1.8 2.449v6.443c0 1.31.64 1.953 1.95 1.953h1.748l-.004-3.976zm-65.23.705c-1.813 0-3.03-1.557-3.03-3.887 0-2.281 1.228-3.828 3.056-3.828 2.083 0 3.028 1.97 3.028 3.804 0 2.882-1.578 3.911-3.054 3.911zm2.952-15.808v6.107c-.522-.532-1.608-1.272-3.567-1.272-3.684 0-6.161 2.849-6.161 7.086 0 4.254 2.423 7.102 6.031 7.102 2.09 0 3.297-1.021 3.877-1.725l-.004.323s-.028.468.254.784c.304.35.879.34.879.34h1.15l1.262.011.002-18.756h-3.723zm28.291 5.054V70.71h3.721V56.957h-3.72zm-71.315 6.887c0 2.033-1.332 3.755-3.567 3.755-2.157 0-3.618-1.772-3.618-3.806v-.05c0-2.027 1.332-3.753 3.566-3.753 2.157 0 3.619 1.778 3.619 3.803v.05zm-3.567-7.216c-4.29 0-7.468 3.217-7.468 7.165v.05c0 3.965 3.153 7.126 7.416 7.126 4.285 0 7.47-3.212 7.47-7.176v-.05c0-3.952-3.158-7.115-7.418-7.115zm91.107 7.335c0 2.036-1.336 3.758-3.566 3.758-2.16 0-3.62-1.774-3.62-3.809v-.053c0-2.025 1.33-3.751 3.57-3.751 2.155 0 3.616 1.776 3.616 3.804v.05zm-3.566-7.215c-4.292 0-7.47 3.213-7.47 7.164v.05c0 3.966 3.152 7.125 7.42 7.125 4.28 0 7.466-3.21 7.466-7.175v-.053c0-3.95-3.158-7.111-7.416-7.111zm-21.633 8.92V60.3h-1.644v-3.337h1.644v-3.144h3.9v3.144h2.93V60.3h-2.93v5.239c0 .9.636 1.906 1.741 1.906.716 0 .908.019 1.44-.066v3.331c-.685.174-1.01.154-1.724.154-2.611 0-5.357-1.431-5.357-5.196zm8.985-11.973a1.832 1.832 0 1 1 3.667 0 1.834 1.834 0 0 1-3.667 0zM57.895 70.877s3.708.323 3.708-2.468v-3.375l-.013-3.94h2.779v-3.098h-2.78v-.916c0-1.28.766-1.93 2.273-1.93.354 0 1.723-.012 1.723-.012V51.84s-1.48-.005-2.159-.005c-1.66 0-5.531.506-5.531 5.166v.994h-1.606v3.099h1.606v9.782z"/><path d="M18.826 52.395a1.25 1.25 0 0 0-1.519-.876 1.255 1.255 0 0 0-.88 1.533 1.255 1.255 0 0 0 1.534.88 1.251 1.251 0 0 0 .865-1.537zm5.539-.2a1.245 1.245 0 0 0 .864-1.544 1.24 1.24 0 0 0-2.277-.286 1.252 1.252 0 0 0 1.413 1.83zm.124 2.668c.078.284.038.587-.11.842a1.08 1.08 0 0 1-.674.527 1.109 1.109 0 0 1-1.359-.798l-.112-.416c-.01-.03-.029-.052-.04-.079a1.63 1.63 0 0 0 .68-1.774v-.002s-.759-.144-1.65.099c-.916.241-1.495.748-1.495.748a1.629 1.629 0 0 0 1.496 1.192c.002.025-.005.054.005.082l.116.426a1.121 1.121 0 0 1-.786 1.374h-.003a1.12 1.12 0 0 1-.847-.106 1.126 1.126 0 0 1-.52-.683l-.978.27c.146.55.504 1.022.995 1.31.493.271 1.07.34 1.614.196h.006a2.12 2.12 0 0 0 1.382-1.147 2.18 2.18 0 0 0 1.763.296h.003a2.161 2.161 0 0 0 1.3-.996 2.15 2.15 0 0 0 .213-1.635l-.999.274zm8.324-7.541a1.233 1.233 0 0 0-.862 1.517c.18.671.858 1.067 1.517.884a1.248 1.248 0 0 0 .877-1.534 1.244 1.244 0 0 0-1.532-.867zm6.41-1.74a1.247 1.247 0 0 0-.292 2.283 1.24 1.24 0 0 0 1.813-1.408 1.238 1.238 0 0 0-1.522-.875z"/></g></svg>
