<svg width="250" height="100" xmlns="http://www.w3.org/2000/svg" xmlns:xlink="http://www.w3.org/1999/xlink"><defs><path id="a" d="M0 49.7274h93.8613V.0407H0z"/></defs><g fill="none" fill-rule="evenodd"><g transform="translate(0 25.2308)"><mask id="b" fill="#fff"><use xlink:href="#a"/></mask><g mask="url(#b)" fill="#000"><path d="M46.9306 19.9604c-2.9163 0-5.2806 2.3623-5.2806 5.2766 0 2.9142 2.3643 5.2766 5.2806 5.2766 2.9164 0 5.2805-2.3624 5.2805-5.2766 0-2.9143-2.3641-5.2766-5.2805-5.2766"/><path d="M46.9306 33.1518a7.8738 7.8738 0 0 1-3.8605-1.0073c-.9152 2.5034-2.2794 4.6706-4.085 6.4696-3.8362 3.8217-9.048 6.0135-14.299 6.0135-10.9913 0-19.9337-8.9357-19.9337-19.919 0-10.9834 8.9424-19.919 19.934-19.919a19.9146 19.9146 0 0 1 13.1074 4.9148c.4934.4314 2.0082 2.0775 2.0082 2.0775.6067-.0407 1.3202-1.3193 1.5841-2.1107.415-1.244.5235-2.6789-.4645-3.5421A24.6675 24.6675 0 0 0 24.6864.0407C11.0744.0407 0 11.1067 0 24.7086c0 13.6018 11.074 24.6679 24.6862 24.668 6.4997 0 12.9346-2.697 17.6543-7.3994C44.813 39.514 46.628 36.541 47.77 33.107a8.0077 8.0077 0 0 1-.8395.0448"/></g></g><path d="M85.92 68.0631c5.0534-4.665 7.9413-11.237 7.9413-18.1238 0-13.6018-11.0743-24.6679-24.6864-24.6679-8.635 0-16.7333 4.5244-21.1345 11.8075-1.1154 1.8457-1.8291 3.7075-2.32 5.5664a7.9749 7.9749 0 0 1 1.2102-.0924 7.8727 7.8727 0 0 1 3.514.8244c.3826-1.3143.9053-2.5878 1.6641-3.8436 3.4924-5.7792 10.1912-9.5134 17.0662-9.5134 10.9916 0 19.934 8.9357 19.934 19.919 0 5.6237-2.3885 10.985-6.5557 14.7596l-3.4685-3.466c-.9278-.9275-2.432-.9273-3.3605-.0001-.9278.9271-.9278 2.4306 0 3.358l9.6787 9.6719a2.3697 2.3697 0 0 0 1.6802.6955c.6083 0 1.2408-.1887 1.8276-.482.5282-.2637 1.5244-1.3345 1.5841-1.8468 0 0-1.1966-1.1904-1.7312-1.7248L85.92 68.0631" fill="#000"/></g></svg>
