<svg width="250" height="100" xmlns="http://www.w3.org/2000/svg"><path d="M7.5895 44.325c-1.7879 0-3.0362 1.204-3.0362 2.7258s1.2483 2.7261 3.0362 2.7261c1.585 0 2.8669-1.2043 2.8669-2.7261 0-1.5218-1.282-2.7259-2.8669-2.7259zM3.8452 59.7933c0 1.2679 1.1468 1.8383 4.6545 1.8383 2.699 0 3.6092-1.2678 3.6092-1.8383 0-.7609-1.2474-1.902-5.2953-1.902-2.294 0-2.9684 1.205-2.9684 1.902zm12.2104-15.7218c-.978 0-2.0576 0-2.6981.38.5393.6974.9441 1.6488.9441 2.9163 0 3.1061-2.2264 5.325-6.6115 5.325-1.821 0-3.2713.0638-3.2713 1.0146 0 2.6627 11.5359-.9508 11.5359 5.6421 0 2.346-2.5296 4.8813-8.1295 4.8813C3.103 64.231 0 62.9002 0 60.301c0-2.0608 1.6525-3.043 3.1705-3.043v-.0638c-.8096-.4752-2.5973-.8875-2.5973-2.663 0-1.5846 1.9567-2.7887 2.7324-3.0106C1.8552 50.411.7084 49.1433.7084 47.146c0-2.8846 2.3609-5.7374 6.9148-5.7374 1.4843 0 3.2383.5708 4.3175 1.4583.809-1.0145 2.1249-1.5218 4.1149-1.4583v2.663zm40.3156 16.7998c.6408.1267 1.1468.1267 1.754.1267 1.4504 0 2.26-.3806 2.7663-1.2999.4041-.7923.6744-1.2679.6744-1.9335 0-.6019-.3372-1.2993-.54-1.965l-4.7997-14.3963h4.216l3.0122 10.4658h.0676l3.1047-10.4658h4.1822L65.175 58.2402c-1.8552 4.7229-3.3395 5.9907-6.7803 5.9907-1.012 0-1.5173-.0632-2.0236-.1266v-3.2329zm17.3064-19.468h1.9539v17.0722h-1.954V41.4034zm0-5.2453h1.9539v2.7265h-1.954v-2.7265zM80.16 58.4815V41.4034h1.9542v2.7699c1.7266-1.735 2.997-2.7573 5.636-2.7573 1.889 0 3.6153 1.1464 4.1037 2.9428 1.5315-1.7036 3.1596-2.9428 5.6029-2.9428 2.9647 0 4.4629 1.549 4.4629 4.3685v12.697h-1.9542V45.5983c0-1.7967-1.0423-2.695-2.932-2.695-1.4982 0-3.9739 1.5175-5.0164 3.0667v12.5115h-1.9545V45.5983c0-1.7967-1.0426-2.695-2.9317-2.695-1.4988 0-3.9745 1.5175-5.0167 3.0667v12.5115h-1.9542zm36.0662-9.7548c-7.7524 1.6108-8.795 3.4605-8.795 5.505 0 1.7656 1.2706 2.7567 3.0298 2.7567 1.824 0 4.0714-1.022 5.7652-2.664v-5.5977zm.3258 9.7548l-.26-2.2673c-2.0197 1.5181-3.5512 2.2614-6.1568 2.2614-2.6388 0-4.6588-1.5489-4.6588-4.213 0-4.3987 3.7789-5.536 10.848-7.0226v-1.115c0-2.1378-.9772-3.2217-3.8768-3.2217-2.0193 0-3.6807 1.053-4.9188 2.912l-1.3023-.744c1.4655-2.6016 3.5502-3.6553 6.2866-3.6553 3.844 0 5.668 1.4873 5.668 5.0499v8.4256c0 .8059.065 2.5058.2607 3.59h-1.8898zm12.1876-7.4315c2.7363 0 4.3978-1.2385 4.3978-4.027 0-2.8186-1.6615-4.1197-4.3978-4.1197-2.7358 0-4.3972 1.6108-4.3972 4.1197 0 2.7885 2.0196 4.027 4.3972 4.027zm-5.2114 8.3335c0 1.5795 1.6284 2.6643 5.1463 2.6643 4.2345 0 6.0592-1.0848 6.0592-2.7576 0-1.332-1.1073-2.6331-6.1894-2.6331-3.8437 0-5.0161 1.332-5.0161 2.7264zm13.0622-16.6047c-.8793 0-2.02.0934-2.704.744.7492.8672 1.2058 1.8274 1.2058 3.3767 0 3.965-2.9647 5.6378-6.548 5.6378-1.0748 0-1.8894-.217-2.7363-.4958-1.0749.3722-1.563.9602-1.563 1.5489 0 .9294.6507 1.3939 5.2444 1.3939 5.0812 0 7.1986 1.5492 7.1986 4.1823 0 2.3542-1.8891 4.3678-7.72 4.3678-5.8312 0-7.3946-1.8894-7.3946-3.81 0-1.394.5866-2.5715 2.9641-3.4082v-.0616c-1.2375-.248-2.2473-.7433-2.2473-2.1064 0-1.3628 1.3032-2.4784 2.5407-2.7259-1.531-.9914-2.4432-2.5403-2.4432-4.2131 0-3.5318 2.6064-5.7932 6.7108-5.7932 1.6284 0 2.8665.4342 3.9415 1.1156.9774-.9295 2.2149-1.4253 3.5505-1.4253v1.6725zm12.2724 5.5762c-.3909-3.3145-1.9218-5.4209-4.8862-5.4517-3.453-.0311-4.9189 3.3145-4.9513 5.4517h9.8375zm-9.8375 1.4873c0 3.6553 1.5964 7.152 5.4404 7.152 2.1822 0 3.2571-.7126 4.951-3.2523l1.596.8053c-1.824 2.85-3.4858 3.9342-6.7103 3.9342-4.4304 0-7.2319-3.0322-7.2319-8.7012 0-4.9872 2.6713-8.3643 6.971-8.3643 4.5936 0 6.7759 3.439 6.7759 8.4263h-11.792zm15.412 4.426c1.5967 2.1687 3.0298 2.726 5.2454 2.726 2.1498 0 3.778-1.6692 3.778-3.404 0-4.6775-9.9675-2.0444-9.9675-7.775 0-3.0365 2.508-4.3993 5.3746-4.3993 2.8339 0 4.6261 1.0537 5.831 2.912l-1.4983.9914c-1.1406-1.4866-2.3778-2.4161-4.3978-2.4161-1.8891 0-3.3552.8669-3.3552 2.8186 0 3.9342 9.968 1.6109 9.968 7.8685 0 2.8811-2.8015 4.8911-5.8637 4.8911-2.6055 0-4.9512-.9914-6.5476-3.2528l1.4331-.9603zM35.3038 41.4034v-5.1299h4.1831v5.13h3.4401v3.1687H39.487v9.6371c0 .8866.4717 1.1406 1.5173 1.1406.6412 0 1.316-.1905 1.9228-.3171v3.2325c-1.1468.1266-2.1588.2533-3.3056.2533-3.1032 0-4.3176-1.4577-4.3176-3.8027V44.5721h-2.4284v-3.1687h2.4284zm11.5246 0v-5.1299h4.1824v5.13h3.4407v3.1687h-3.4407v9.6371c0 .8866.4724 1.1406 1.518 1.1406.6408 0 1.3158-.1905 1.9227-.3171v3.2325c-1.1468.1266-2.1588.2533-3.3056.2533-3.1032 0-4.3175-1.4577-4.3175-3.8027V44.5721h-2.4285v-3.1687h2.4285zm120.6318-2.9338c.3616 0 .7664.0179.7664-.4601 0-.3893-.312-.4429-.5986-.4429h-.598v.903h.4302zm-.4301 1.5338h-.3736V37.255h1.0517c.6168 0 .891.2675.891.7609 0 .4844-.3186.697-.6324.764l.7642 1.2234h-.4236l-.7488-1.2235h-.5285v1.2235zm2.4253-1.3748c.0004-1.1168-.828-2.0025-1.9375-2.0025-1.1123 0-1.9428.8857-1.9428 2.0025 0 1.1104.8305 1.9961 1.9428 1.9961 1.1095 0 1.9379-.8857 1.9375-1.996zm.3718 0c0 1.2682-1.0348 2.3077-2.3093 2.3077-1.282 0-2.3134-1.0395-2.3134-2.3077 0-1.2737 1.0314-2.3138 2.3134-2.3138 1.2745 0 2.3093 1.0401 2.3093 2.3138zM27.7995 47.946c-.067-2.282-1.349-3.6137-3.3726-3.6137-2.0242 0-3.3059 1.3317-3.3734 3.6137h6.746zm-6.746 2.6627c.0675 3.4233 1.6864 4.7546 3.643 4.7546 1.9568 0 2.8673-.8243 3.9126-1.9655l3.0362 1.7754c-1.6195 2.3455-3.9803 3.36-7.3535 3.36-4.5536 0-7.4205-3.3286-7.4205-8.5584 0-5.2308 2.8669-8.5585 7.6232-8.5585 4.5872-.0317 7.1508 3.6134 7.1508 7.5757v1.6167H21.0535z"/></svg>
