<svg width="250" height="100" xmlns="http://www.w3.org/2000/svg"><path d="M64.222 52.326c2.192.088 1.108-.076 3.249.5v-.448h11.47l.053-.004a7.738 7.738 0 0 1 3.375.51l.124.071v-.577h16.825v.581c1.013-.438 2.076-.532 3.16-.605l-.039-.001h9.731v.621c1.028-.446 2.104-.546 3.206-.62l-.04-.001h9.707v8.783h-.524c1.3 1.648.771.619 1.182 3.264 0 5.501-3.516 7.775-7.582 7.775l-9.663-.02v-.671c-2.214.741-1.131.538-3.235.691l-28.092.027.006-4.995h-.586v4.995h-9.078V66.67c-3.356.958-1.741.71-4.821.878h-.875v4.632H51.064l-2.683-2.955-2.7 2.955H28.173V52.329h17.214l3.011 3.291 3.023-3.268 12.761-.023.04-.003zm15.035 2.746l-.199.015h-8.877v14.406h3.66v-4.995h3.56c2.289 0 2.438 2.192 2.438 2.192v2.803h3.559v-3.559c0-2.436-1.755-3.264-1.755-3.264s2.048-.878 2.048-3.365c-.175-2.803-1.53-4.197-4.434-4.233zm-1.634 3.307c1.094 0 1.996.609 1.996 1.365s-.902 1.365-1.996 1.365h-3.782v-2.73h3.782zm18.987-3.292H85.202v14.385H96.61v-3.121h-7.726v-2.438h7.533v-3.27h-7.533v-2.216h7.726v-3.34zm-32.127-.061l-.199.012h-8.875v.025h-2.804l-4.217 4.559-4.194-4.584H30.882v14.434h13.605l3.901-4.27 3.876 4.27h6.802v-4.633h3.584c4.727 0 6.266-1.319 6.266-5.561-.175-2.799-1.541-4.19-4.433-4.252zm-9.074 2.353v10.02l-4.535-5.019 4.535-5.001zm-13.141 1.048l3.608 3.953-3.608 3.971h-7.704v-2.438h7.509v-3.27h-7.509v-2.216h7.704zm20.577-.076c1.097 0 2 .613 2 1.366 0 .756-.903 1.365-2 1.365h-3.779v-2.731h3.779zm39.398-3.291c-2.728.363-4.317 1.54-4.363 4.44 0 4.73 5.047 4.291 5.047 4.291s3.096-.1 3.096 1.195c0 1.387-2.048 1.143-2.048 1.143H98.27v3.318h6.51s.165.019.441.019c1.276 0 4.874-.414 4.874-5.065 0-4.34-5.586-3.928-5.586-3.928s-2.655.17-2.655-1.022c0-1.416 1.953-1.024 1.953-1.024h5.654v-3.364h-7.022l-.196-.003zm12.898 0c-2.728.363-4.317 1.54-4.363 4.44 0 4.73 5.046 4.291 5.046 4.291s3.097-.1 3.097 1.195c0 1.387-2.073 1.143-2.073 1.143h-5.683v3.318h6.512s.166.019.442.019c1.273 0 4.873-.414 4.873-5.065 0-4.34-5.583-3.928-5.583-3.928s-2.657.17-2.657-1.022c0-1.416 1.947-1.024 1.947-1.024h5.635v-3.364h-6.997l-.196-.003zm-33.65-27.262l.371.01 13.796.121.973 2.319v-2.319h9.405l1.496 2.474v-2.474h9.099v19.824h-9.286l-1.563-2.594v2.594h-11.66l-1.296-3.021h-3.094l-1.271 3.021h-7.528l-.384-.027c-2.238-.632-1.221-.189-3.076-1.267v1.343l-14.46-.05.005-4.995h-.585v4.995l-28.116.001v-.305l-.141.305h-6.46l-.172-.37v.37H15.818l-1.268-3.021h-3.092l-1.292 3.021H.299l8.354-19.824h8.743l1.048 2.498v-2.498h10.24l2.263 5.034 2.25-5.034 31.632-.001.05-.004a7.752 7.752 0 0 1 3.374.511l.124.071v-.577h9.096v1.123c1.169-.716 2.378-.996 3.708-1.177l.31-.077zm-6.726 2.86h-3.679v14.455h3.679V30.658zm-20.599 0h-11.41v14.406h11.41v-3.118h-7.729v-2.438h7.534v-3.267h-7.534v-2.219h7.729v-3.364zm27.623-.122c-.195.049-5.778-.268-5.778 7.729 0 6.095 4.922 6.799 4.922 6.799h5.729l1.271-3.02h6.68l1.295 3.02h7.165v-9.628l5.803 9.628h5.047V30.658h-3.682v9.484l-5.732-9.484H99.34v13.068l-5.483-13.068h-5.12L84.203 41.41c-.138.043-4.351 1.557-4.364-3.313-.001-.335.014-.67.046-1.003.295-3.147 2.709-3.147 2.709-3.148l3.705-.046v-3.242l-4.51-.122zm9.508 3.535l1.756 4.291h-3.56l1.804-4.291zm-26.156-3.428l-.199.015h-8.874v14.406h3.657v-4.995h3.559c2.289 0 2.438 2.194 2.438 2.194v2.801h3.581v-3.557c0-2.438-1.777-3.269-1.777-3.27 0 .001 2.048-.874 2.048-3.361-.174-2.803-1.529-4.198-4.433-4.233zm-1.637 3.303c1.097.001 1.999.61 1.999 1.369 0 .755-.902 1.365-1.999 1.365h-3.779v-2.734h3.779zm-47.908-3.288h-5.145l-6.07 14.406h3.998l1.292-3.02h6.681l1.267 3.02h7.217v-9.898l4.608 9.898h2.999l4.583-9.945v9.945h3.706V30.658h-5.778l-3.998 8.947-4.023-8.947h-5.778v13.238l-5.559-13.238zm-2.585 3.413l1.78 4.291h-3.559l1.779-4.291zm70.26 2.556l-.505.006c-.184.316-.085.102-.184.685-.023.25-.035.5-.035.751l-.007.291.731-1.733zm-.531.006l-.147.002.145-.001h.002v-.001zm-1.147-8.817c-.126.009-.043.001-.248.036l.248-.036z" fill="#000" fill-rule="nonzero"/></svg>
