<svg width="250" height="100" xmlns="http://www.w3.org/2000/svg"><path d="M18.6674 36.8046v29.2502h7.7607V36.8736c.3716-.0287.632-.066.8925-.066 5.5197-.0022 11.0395-.0197 16.5591.0085 3.5006.0177 5.502 1.5175 6.4769 4.8446.8969 3.0611.965 6.218.7038 9.3502-.174 2.087-.565 4.1954-1.1827 6.1973-.6717 2.1776-2.3005 3.614-4.7085 3.764-2.479.1544-4.973.0628-7.4558.1784-1.0316.0479-1.3093-.254-1.303-1.258.0422-6.6564.0234-13.3134.018-19.9699-.0004-.4537-.0531-.9073-.0834-1.3886H28.574v27.517c.5023.0288.9654.078 1.4285.0786 4.611.0058 9.2223.0302 13.8329-.0103 1.6762-.0151 3.3606-.1103 5.0241-.3078 4.7532-.565 8.0835-2.995 9.4799-7.5712 1.8683-6.123 1.9612-12.3243.1492-18.4725-1.2027-4.0805-4.0168-6.6704-8.2886-7.5289-1.537-.3086-3.132-.462-4.7015-.4668-11.9819-.0373-23.9638-.0207-35.9459-.0207-2.3484 0-2.3484 0-2.3484 2.317 0 2.7361 0 2.7361 2.8083 2.7361h8.6548zM0 79.7568V20.283h67c-.0187.4685-.0534.937-.0536 1.4058-.0028 18.8736-.0024 37.7473-.0024 56.6207v1.415h-1.5035c-21.3066 0-42.6134-.0002-63.92.0014-.5068 0-1.0137.0202-1.5205.0309z"/></svg>
