<svg width="250" height="100" xmlns="http://www.w3.org/2000/svg"><path d="M69.1674 37.478h-1.7581l-4.6545-6.52v4.9356h1.0797v1.5844h-4.027v-1.5844h1.0651V29.162h-1.0651v-1.5844h2.7722l4.7055 6.6295V29.162h-1.0797v-1.5844h4.027v1.5844h-1.065v8.316zm6.9233-1.0003a2.7278 2.7278 0 0 1-2.4074 1.1901c-2.1096-.016-3.809-1.7364-3.801-3.8477-.012-2.1597 1.7233-3.9225 3.8812-3.9426a2.655 2.655 0 0 1 2.298 1.2485v-1.0514h2.6483v1.577h-.9265v4.242h.9265v1.5844h-2.619v-1.0003zm0-2.7452c-.02-1.2184-1.0147-2.1945-2.2323-2.1903-1.2336.0358-2.2091 1.0576-2.1886 2.2925 0 1.2097.9798 2.1904 2.1886 2.1904.603 0 1.1808-.2417 1.6044-.6711a2.257 2.257 0 0 0 .6498-1.6142l-.0219-.0073zm5.8145 2.1611h1.3423v1.5844H80.22v-5.8263h-1.1672v-1.577h1.1672v-2.497h1.6853v2.497h1.262v1.577h-1.262v4.242zm4.6106 0h.9557v1.5844h-3.6477v-1.5844h.9703v-4.242h-.8973v-1.577h2.641l-.022 5.819zm0-6.5272h-1.6852v-1.7888h1.6852v1.7888zm1.4007 4.3807c.0202-2.1422 1.7696-3.8637 3.9102-3.8476 2.1405.0161 3.864 1.7637 3.8519 3.906-.012 2.1422-1.7549 3.8703-3.8955 3.8623-2.1487-.016-3.8787-1.7703-3.8666-3.9207zm6.0917 0c-.0202-1.2-1.0014-2.1602-2.2006-2.1535-1.1991.0067-2.1696.978-2.1763 2.178-.0067 1.2001.9528 2.1822 2.1518 2.2023 1.2256-.008 2.2171-1.0003 2.225-2.2268zm2.962-2.0954h-.9558v-1.577h2.6482v1.0513a2.3998 2.3998 0 0 1 2.1886-1.2193 2.917 2.917 0 0 1 2.1303.9126 2.8271 2.8271 0 0 1 .6274 2.1904V35.93h.9557v1.5844h-3.604v-1.6209h.9558V33.499a2.126 2.126 0 0 0-.2918-1.3288 1.6045 1.6045 0 0 0-1.2986-.5987 1.641 1.641 0 0 0-1.3424.6206 2.601 2.601 0 0 0-.321 1.5551v2.1465h.9557v1.5844h-3.6039v-1.5844h.9557v-4.242zm14.0143 4.826a2.7278 2.7278 0 0 1-2.3783 1.1901c-2.1084-.016-3.8057-1.7376-3.7936-3.8477a3.915 3.915 0 0 1 1.1273-2.7783 3.9088 3.9088 0 0 1 2.7612-1.1643 2.655 2.655 0 0 1 2.298 1.2485v-1.0514h2.6482v1.577h-.9265v4.242h.9265v1.5844h-2.6482l-.0146-1.0003zm0-2.7452c0-1.2097-.9799-2.1903-2.1886-2.1903a2.2534 2.2534 0 0 0-1.5928.6813 2.257 2.257 0 0 0-.6396 1.6112c0 1.2097.9799 2.1904 2.1886 2.1904a2.246 2.246 0 0 0 1.6067-.669 2.2497 2.2497 0 0 0 .6476-1.6163l-.0219-.0073zm5.7488 2.1611h.9557v1.5844h-3.6696v-1.5844h1.0213V29.162h-.9556v-1.5844h2.6482v8.316zM71.4655 48.7071h1.0797v1.577h-4.027v-1.577h1.065v-5.7533l-2.7284 7.3304H65.527l-2.8087-7.3304v5.7533h1.1454v1.577h-4.1146v-1.577h1.0797v-6.739h-1.0797v-1.5843h3.7134l2.6847 6.9872 2.692-6.9872h3.706v1.5844h-1.0797v6.739zm8.9441 0h.9557v1.577H78.863v-.9126a2.7131 2.7131 0 0 1-2.2616 1.1025 2.6474 2.6474 0 0 1-2.05-.9418 3.0682 3.0682 0 0 1-.6493-2.1466v-2.9204h-.9484v-1.5844h2.6483v4.0084c-.0466.4805.0525.9639.2845 1.3872.2806.4105.7507.6499 1.2475.6352a1.6118 1.6118 0 0 0 1.2475-.6133 2.3047 2.3047 0 0 0 .321-1.4603V44.458h-.9338v-1.577h2.641v5.8262zm3.3267-.5695a1.1248 1.1248 0 0 0 .3493.824 1.123 1.123 0 0 0 .8398.3077.9625.9625 0 0 0 .6963-.2457.964.964 0 0 0 .3178-.667c0-.73-.7295-.8615-1.2621-1.0075-1.2913-.3358-2.6993-.73-2.6993-2.3582a2.308 2.308 0 0 1 .7487-1.6956 2.3042 2.3042 0 0 1 1.7536-.597 1.969 1.969 0 0 1 1.678.6644v-.511h1.2475v2.037h-1.6342a.9056.9056 0 0 0-.2957-.6352.9042.9042 0 0 0-.66-.2337.8458.8458 0 0 0-.6206.1954.8471.8471 0 0 0-.2986.5785c0 .6936.6785.847 1.2183.971 1.3278.3067 2.7577.7302 2.7577 2.3803 0 1.504-1.2621 2.329-2.6482 2.329a2.4066 2.4066 0 0 1-1.9114-.8031v.6133H82v-2.1466h1.7363zm7.2151.5695h.9703v1.577H88.274v-1.577h.9703V44.458h-.9703v-1.577h2.6482l.0292 5.8262zm0-6.5345H89.259v-1.7888h1.6925v1.7888zm8.9952 5.6365c-.618 1.869-2.5333 2.9816-4.4614 2.5919-1.9281-.3898-3.2617-2.1592-3.1064-4.1217.1552-1.9625 1.7505-3.4998 3.7159-3.581a2.8369 2.8369 0 0 1 2.123.9272v-.73h1.459v2.4677h-1.5758a2.2465 2.2465 0 0 0-1.8457-1.0148 2.1878 2.1878 0 0 0-1.5686.662 2.1913 2.1913 0 0 0-.62 1.5867 2.1912 2.1912 0 0 0 .6459 1.5835c.4208.4185.9933.648 1.5864.636a1.984 1.984 0 0 0 1.7436-1.0075h1.9041zm-32.3039 8.4985c-.771-1.2273-2.2638-1.7913-3.653-1.38-1.389.4112-2.335 1.6973-2.3146 3.1469-.0037 1.4486.9493 2.7255 2.3383 3.133 1.389.4076 2.88-.1522 3.6585-1.3734h2.0354c-.7038 2.0448-2.6175 3.425-4.7785 3.4461a5.1413 5.1413 0 0 1-3.6392-1.5463 5.1495 5.1495 0 0 1-1.4675-3.674c-.0002-2.8028 2.2552-5.0828 5.0557-5.1108a4.1858 4.1858 0 0 1 3.064 1.2193v-1.0149h1.5466v3.1541h-1.8457zm9.9436 4.6436c-.5763 1.4226-1.9533 2.3567-3.4872 2.3655-2.1556.0121-3.9128-1.7269-3.9249-3.8842-.012-2.1573 1.7256-3.9159 3.8811-3.928a3.9526 3.9526 0 0 1 2.7723 1.19 3.8787 3.8787 0 0 1 1.036 2.7745l-.0511.5914H71.823c.2348 1.0249 1.138 1.7571 2.1886 1.7742a2.064 2.064 0 0 0 1.8165-.8834h1.7582zm-1.284-2.1904c-.2842-1.0469-1.2434-1.7662-2.3272-1.745-1.042.0138-1.9424.7317-2.1886 1.745h4.5158zm2.9473-1.4602h-.9556V55.687h2.6409v1.0514a2.3998 2.3998 0 0 1 2.1886-1.2193 2.917 2.917 0 0 1 2.1375.92 2.8344 2.8344 0 0 1 .6201 2.1903v2.9204h.9338v1.5844h-3.5747V61.506h.9557v-2.3947a2.126 2.126 0 0 0-.2918-1.3288 1.619 1.619 0 0 0-1.3059-.5987 1.6628 1.6628 0 0 0-1.3423.6279 2.579 2.579 0 0 0-.321 1.5478v2.1465h.9557v1.5844H78.294V61.506h.9556v-4.2054zm10.6878 4.2054h1.3496v1.5844h-3.0349V57.264H87.085v-1.577h1.1672v-2.4898h1.6853v2.4897h1.262v1.577h-1.262v4.242zm4.4428-4.5559a2.451 2.451 0 0 1 2.1887-1.3434v1.7304a2.2605 2.2605 0 0 0-1.4591.5403 2.0672 2.0672 0 0 0-.6347 1.7595v1.8691h.9557v1.5844h-3.604V61.506h.9558v-4.2054h-.9557V55.687h2.5169l.0364 1.2631zm10.1698 4.001c-.579 1.4238-1.9586 2.3578-3.4945 2.3656-2.1556.0121-3.9128-1.7269-3.9249-3.8842-.012-2.1573 1.7256-3.9159 3.8811-3.928a3.9526 3.9526 0 0 1 2.7723 1.19 3.8495 3.8495 0 0 1 1.036 2.7745l-.0511.5914h-5.9822c.23 1.0278 1.1362 1.7624 2.1886 1.7742a2.064 2.064 0 0 0 1.8092-.8834h1.7655zm-1.2913-2.1903c-.2842-1.0469-1.2434-1.7662-2.3272-1.745-1.042.0138-1.9424.7317-2.1886 1.745h4.5158zm33.1648-28.124a3.1291 3.1291 0 0 0-2.641-1.4602 3.0773 3.0773 0 0 0-2.2849.8902 3.0824 3.0824 0 0 0-.9104 2.2785c-.0106 1.4142.9187 2.6634 2.2755 3.0589 1.3568.3955 2.811-.159 3.5608-1.3578h1.9697c-.6901 1.9866-2.553 3.325-4.6544 3.344a5.1047 5.1047 0 0 1-3.5164-1.4603 5.1129 5.1129 0 0 1-1.459-3.5848c-.0162-2.7311 2.1808-4.9593 4.9097-4.9794a4.04 4.04 0 0 1 2.962 1.1828v-.971h1.5028v3.0591h-1.7144zm9.6007 4.461c-.5534 1.382-1.89 2.2892-3.3778 2.2926a3.7191 3.7191 0 0 1-2.6717-1.08 3.725 3.725 0 0 1-1.1-2.6655 3.7325 3.7325 0 0 1 1.0578-2.6997 3.7265 3.7265 0 0 1 2.6702-1.1261 3.8578 3.8578 0 0 1 2.6847 1.1536 3.7618 3.7618 0 0 1 1.0067 2.6868l-.0583.5768h-5.7926c.223 1.0054 1.1158 1.7196 2.1449 1.7157a1.9984 1.9984 0 0 0 1.7363-.8542h1.6998zm-1.2475-2.1246c-.277-1.0124-1.2057-1.7071-2.2543-1.6866-.9967.0292-1.8523.7184-2.0938 1.6866h4.348zm2.8525-1.4091h-.9192v-1.526h2.5606v1.0222a2.305 2.305 0 0 1 2.1157-1.1828 2.8295 2.8295 0 0 1 2.0646.8834 2.7321 2.7321 0 0 1 .6055 2.11v2.8037h.9265v1.526h-3.4872v-1.526h.9265v-2.3218a2.0749 2.0749 0 0 0-.2845-1.2923 1.5607 1.5607 0 0 0-1.262-.5768 1.6045 1.6045 0 0 0-1.2987.606 2.5425 2.5425 0 0 0-.3064 1.504v2.0809h.9266v1.526H146.71v-1.526h.9192v-4.1105zm10.3594 4.1105h1.2986v1.526h-2.9328V31.564h-1.1307v-1.526h1.1307v-2.4167h1.6342v2.4167h1.2183v1.526h-1.2183v4.1105zm4.3043-4.4172a2.3708 2.3708 0 0 1 2.1448-1.2996v1.672a2.1876 2.1876 0 0 0-1.408.5257 2.0087 2.0087 0 0 0-.62 1.7084v1.8107h.9264v1.526h-3.4799v-1.526h.9192v-4.1105h-.9192v-1.526h2.4367v1.2193zm9.878 3.8404c-.5535 1.382-1.8901 2.2892-3.3778 2.2926a3.7191 3.7191 0 0 1-2.6718-1.08 3.725 3.725 0 0 1-1.1-2.6655 3.7325 3.7325 0 0 1 1.0578-2.6997 3.7265 3.7265 0 0 1 2.6702-1.1261 3.8578 3.8578 0 0 1 2.6847 1.1536 3.7618 3.7618 0 0 1 1.0067 2.6868l-.0583.5768h-5.829c.223 1.0054 1.1157 1.7196 2.1448 1.7157a1.9765 1.9765 0 0 0 1.729-.8542h1.7436zm-1.2476-2.1246c-.277-1.0124-1.2057-1.7071-2.2543-1.6866-.9966.0292-1.8522.7184-2.0937 1.6866h4.348zM137.868 50.0505h-1.6999l-4.5085-6.3081v4.775h1.0432v1.5331h-3.903v-1.5332h1.036v-6.52h-1.036v-1.5332h2.6847l4.5596 6.4178v-4.8845h-1.0505V40.464h3.9103v1.5333h-1.036v8.0531zm7.507-.971a2.6257 2.6257 0 0 1-2.3054 1.1536c-2.0325-.032-3.66-1.6966-3.6477-3.731-.0083-2.0758 1.654-3.7718 3.728-3.8038a2.5602 2.5602 0 0 1 2.225 1.212V42.888h2.568v1.526h-.9046v4.1251h.9046v1.5333h-2.568v-.993zm0-2.6576a2.1906 2.1906 0 0 0-1.1446-1.867 2.1872 2.1872 0 0 0-2.1879.0583 2.1908 2.1908 0 0 0-1.0434 1.9255c.0323 1.2093 1.038 2.1635 2.2463 2.1312 1.2083-.0323 2.1617-1.0387 2.1295-2.248zm5.6392 2.0954h1.2986v1.5332h-2.9327v-5.6437h-1.1308v-1.526h1.1308v-2.4167h1.6341v2.4167h1.2184v1.526h-1.2184v4.1105zm4.4648.022h.9265v1.5332h-3.5018v-1.5333h.9411v-4.1324h-.9265v-1.526h2.5607v5.6584zm0-6.3229h-1.6342v-1.7523h1.6342v1.7523zm1.3715 4.22c.0202-2.0736 1.714-3.7394 3.7861-3.7234 2.072.0161 3.74 1.708 3.728 3.7818-.012 2.0737-1.6994 3.7462-3.7715 3.7383a3.763 3.763 0 0 1-2.658-1.1215 3.769 3.769 0 0 1-1.0846-2.6751zm5.902 0c-.0202-1.1797-.985-2.1236-2.164-2.1169-1.1791.0067-2.1332.9616-2.14 2.1415-.0066 1.18.9365 2.1457 2.1154 2.1658 1.2087 0 2.1886-.9806 2.1886-2.1903zm2.8525-2.0296h-.9265v-1.526h2.5606v1.0222a2.3123 2.3123 0 0 1 2.123-1.2047 2.8514 2.8514 0 0 1 2.0792.9053 2.7321 2.7321 0 0 1 .5982 2.11v2.8256h.9265v1.5333h-3.4872v-1.5333h.9265v-2.3437a2.0895 2.0895 0 0 0-.2772-1.285 1.5607 1.5607 0 0 0-1.262-.5767 1.5972 1.5972 0 0 0-1.2987.5986 2.506 2.506 0 0 0-.3137 1.504v2.1028h.9265v1.5333h-3.4871v-1.5333h.9119v-4.1324zm13.5694 4.6727a2.6257 2.6257 0 0 1-2.3054 1.1536c-2.0308-.036-3.656-1.6982-3.6476-3.731-.0083-2.0758 1.654-3.7718 3.7279-3.8038a2.5602 2.5602 0 0 1 2.1886 1.212V42.888h2.568v1.526h-.9047v4.1251h.9047v1.5333h-2.5315v-.993zm0-2.6576a2.1906 2.1906 0 0 0-1.1445-1.867 2.1872 2.1872 0 0 0-2.1879.0583 2.1908 2.1908 0 0 0-1.0434 1.9255c.0322 1.2093 1.038 2.1635 2.2463 2.1312 1.2083-.0323 2.1617-1.0387 2.1295-2.248zm5.5663 2.0954h.9266v1.5332h-3.5529v-1.5332h.9922v-6.52h-.9265v-1.5332h2.5606v8.0532zM134.6653 61.82a2.7205 2.7205 0 0 1-2.3491 1.1828c-1.977-.088-3.5345-1.7176-3.5345-3.698 0-1.9805 1.5575-3.6101 3.5345-3.698a2.983 2.983 0 0 1 2.3637 1.1681v-1.9348h-.9557v-1.5332h2.5753v8.0312h.9265v1.5333h-2.5607V61.82zm0-2.5335a2.1909 2.1909 0 0 0-1.1256-1.8788 2.1874 2.1874 0 0 0-2.1886.0361 2.191 2.191 0 0 0-1.063 1.915c.02 1.2097 1.016 2.1741 2.2247 2.1542 1.2087-.02 2.1724-1.0168 2.1525-2.2265zm10.0166 1.4967c-.5512 1.385-1.8883 2.2954-3.3778 2.2999-2.0256-.0765-3.6317-1.736-3.6434-3.7647-.0117-2.0286 1.575-3.7066 3.5996-3.8066a3.8578 3.8578 0 0 1 2.6847 1.1536 3.7618 3.7618 0 0 1 1.0068 2.6868l-.0584.5768h-5.7925c.208 1.02 1.1047 1.7525 2.1448 1.7523a2.0058 2.0058 0 0 0 1.7436-.898h1.6926zm-1.2476-2.1173c-.2742-1.0153-1.2035-1.7136-2.2542-1.6939-.9988.03-1.855.7228-2.0938 1.6939h4.348zm15.7435 2.6941h1.0432v1.5333h-3.8957V61.36h1.0286v-5.5635l-2.641 7.0968h-1.2839l-2.7285-7.0968V61.36h1.1162v1.5333h-3.9832V61.36h1.0432v-6.5199h-1.0432v-1.5332h3.5966l2.5971 6.7681 2.6045-6.7681h3.5893V54.84h-1.0432v6.52zm8.6669 0h.9265v1.5333h-2.4367v-.8835a2.6183 2.6183 0 0 1-2.1886 1.0733 2.5671 2.5671 0 0 1-1.9843-.9127 2.9805 2.9805 0 0 1-.6274-2.0808v-2.8328h-.89v-1.5333h2.5606v3.8842a2.294 2.294 0 0 0 .2845 1.3435c.2648.403.7223.6388 1.2038.6205a1.5535 1.5535 0 0 0 1.2037-.6205 2.1917 2.1917 0 0 0 .3137-1.4092v-2.2852h-.9265v-1.5333h2.5607V61.36zm3.2172-.5476c.0055.297.1314.5791.3487.7815.2174.2024.5076.3077.804.2918.5146.025.9535-.3688.9849-.8834 0-.7302-.6785-.8324-1.2257-.9784-1.2475-.3285-2.6117-.7301-2.6117-2.2852a2.2276 2.2276 0 0 1 .7331-1.6245 2.224 2.224 0 0 1 1.689-.5659 1.9252 1.9252 0 0 1 1.6268.6425v-.4965h1.2038v1.9494h-1.5831a.8691.8691 0 0 0-.2825-.6216.8677.8677 0 0 0-.644-.2253c-.4509-.0469-.855.2792-.9047.7301 0 .6717.6566.8177 1.1746.9419 1.2913.292 2.6701.6936 2.6701 2.3071 0 1.4603-1.2183 2.256-2.5607 2.256a2.3555 2.3555 0 0 1-1.853-.7811v.5913h-1.2475v-2.0297h1.678zm6.989.5476h.9265v1.5333h-3.5018V61.36h.9411v-4.1032h-.9265v-1.5333h2.5607V61.36zm0-6.3155h-1.6342V53.307h1.6342v1.7376zm7.3464 6.8412a3.0047 3.0047 0 0 1-2.422 1.117c-2.0307-.0261-3.6557-1.6949-3.6295-3.7272.0262-2.0322 1.6936-3.6585 3.7243-3.6323a2.6257 2.6257 0 0 1 2.3272 1.212v-1.1317h2.568v1.5333h-.912v6.7243h.912v1.526h-3.4945v-1.526h.9265v-2.0954zm0-2.5627c0-1.2097-.9798-2.1903-2.1886-2.1903-1.2087 0-2.1886.9806-2.1886 2.1903 0 1.2097.9799 2.1903 2.1886 2.1903 1.2088 0 2.1886-.9806 2.1886-2.1903zm10.075 2.037h.9265v1.5333h-2.4294v-.8835a2.6183 2.6183 0 0 1-2.1886 1.0733 2.5671 2.5671 0 0 1-1.9844-.9127 2.9805 2.9805 0 0 1-.6274-2.0808v-2.8328h-.9265v-1.5333h2.5607v3.8842c-.0259.4715.091.9397.3356 1.3435a1.407 1.407 0 0 0 1.211.6205 1.5462 1.5462 0 0 0 1.2038-.5913 2.1917 2.1917 0 0 0 .3137-1.4092v-2.3144h-.9266v-1.5333h2.5607l-.0292 5.6365zm8.5282-.5768c-.551 1.385-1.8882 2.2954-3.3777 2.2999-2.0246-.089-3.6202-1.7576-3.6202-3.7857 0-2.028 1.5956-3.6966 3.6202-3.7856a3.8286 3.8286 0 0 1 2.6774 1.1536 3.7326 3.7326 0 0 1 .9703 2.6868l-.0511.5768h-5.7852c.2074 1.0173 1.1 1.749 2.1375 1.7523a1.9911 1.9911 0 0 0 1.729-.8616l1.6998-.0365zm-1.2475-2.1173c-.269-1.0157-1.1972-1.7155-2.247-1.6939-.9951.0273-1.8465.7234-2.0718 1.6939h4.3188zM0 27.5776h54.6934v5.0743H0v-5.0743zM0 37.719h54.6934v5.0743H0V37.719zm0 10.1486h54.6934v5.0743H0v-5.0743zm0 10.1413h54.6934v5.0743H0v-5.0743zM0 68.15h54.6934v5.0743H0V68.15zm123.073-40.6382h.7295v45.7125h-.7295V27.5119z" fill="#000" fill-rule="nonzero"/></svg>
